Coordinates
version=1
nRows=22
nColumns=24
inDegrees=yes

Units are S.I. units (second, meters, Newtons, ...)
Angles are in degrees.

endheader
time	pelvis_tilt	pelvis_list	pelvis_rotation	pelvis_tx	pelvis_ty	pelvis_tz	hip_flexion_r	hip_adduction_r	hip_rotation_r	knee_angle_r	ankle_angle_r	subtalar_angle_r	mtp_angle_r	hip_flexion_l	hip_adduction_l	hip_rotation_l	knee_angle_l	ankle_angle_l	subtalar_angle_l	mtp_angle_l	lumbar_extension	lumbar_bending	lumbar_rotation
      3.42000000	    -12.02155991	     -2.99692484	      2.23468656	     -1.82142015	     -0.04937220	     -0.32513274	     39.73252382	      0.68999588	     -2.09990463	    -12.71646429	     -0.50133627	      6.54469702	     12.10068804	     -3.89586391	     -1.67800920	      6.80591220	    -17.71227347	     23.08478963	     16.13959126	    -15.25108050	     10.05048344	      0.88112249	    -13.46426949
      3.42500000	    -12.03669067	     -3.26798832	      2.38067492	     -1.81405294	     -0.05071633	     -0.32460251	     39.97693931	      0.86637863	     -2.48723396	    -13.78415378	     -1.30132170	      6.24354247	     12.16704069	     -3.93419822	     -2.08616378	      6.64778344	    -18.59321300	     23.07948456	     16.84220489	    -14.85551341	     10.14254654	      1.23145213	    -13.71622880
      3.43000000	    -12.03973589	     -3.60946030	      2.39841256	     -1.80655837	     -0.05199679	     -0.32391907	     40.19824285	      1.19469611	     -2.80429750	    -14.83161788	     -2.39972039	      5.73166128	     12.56617860	     -3.99767023	     -2.58641870	      6.27655647	    -19.46613025	     22.95371381	     17.62869431	    -14.12432897	     10.23727388	      1.69216761	    -13.80386002
      3.43500000	    -12.05750903	     -3.96366566	      2.49440381	     -1.79915591	     -0.05316538	     -0.32334035	     40.44484974	      1.47945660	     -3.19463236	    -15.93241180	     -3.53917607	      5.15513945	     12.79471212	     -3.98861069	     -3.10042749	      6.01696245	    -20.39797091	     22.72799573	     18.36978666	    -13.37470465	     10.33315874	      2.14980267	    -14.01731303
      3.44000000	    -12.11117500	     -4.37625612	      2.51807885	     -1.79170139	     -0.05422949	     -0.32272378	     40.71329451	      1.85893076	     -3.53203226	    -17.01455572	     -4.78403432	      4.54916671	     12.88084210	     -3.92444356	     -3.68382149	      5.61979113	    -21.35660950	     22.39020168	     19.14767312	    -12.54009495	     10.47332058	      2.69260062	    -14.17984741
      3.44500000	    -12.16327021	     -4.80830911	      2.47305849	     -1.78424043	     -0.05522151	     -0.32201179	     40.99124713	      2.31199651	     -3.77093421	    -18.13193357	     -5.99945339	      3.84977579	     12.85566534	     -3.83791741	     -4.30813819	      5.06703455	    -22.35384517	     21.94328247	     20.02514591	    -11.48396000	     10.60803382	      3.27366990	    -14.25326144
      3.45000000	    -12.12602204	     -5.22310162	      2.35211755	     -1.77670285	     -0.05596003	     -0.32121829	     41.15612651	      2.82456297	     -3.85510640	    -19.24830108	     -7.11125730	      3.08842440	     12.69613082	     -3.91337886	     -4.91157521	      4.54703712	    -23.12389105	     20.71741154	     20.59918126	     -8.50422040	     10.63883482	      3.86468469	    -14.19796929
      3.45500000	    -12.25393390	     -5.67378891	      2.28650044	     -1.76926666	     -0.05683816	     -0.32048049	     41.51961758	      3.30654626	     -4.05422185	    -20.42438982	     -8.02501436	      2.50133420	     12.31910875	     -3.64541748	     -5.59211936	      3.83333918	    -24.29065704	     20.19795427	     21.67549892	     -7.72049209	     10.84734679	      4.46229185	    -14.30216560
      3.46000000	    -12.22764765	     -6.13701287	      2.13653011	     -1.76169891	     -0.05739066	     -0.31957510	     41.67133586	      3.91814215	     -4.00745596	    -21.58443877	     -8.62525055	      1.83679701	     11.25909561	     -3.62069960	     -6.30262832	      3.11038524	    -25.20208609	     18.85403437	     22.49417130	     -4.83490172	     10.88764532	      5.09883294	    -14.23427902
      3.46500000	    -12.35624430	     -6.60709145	      2.00707576	     -1.75419253	     -0.05809934	     -0.31869824	     41.98260609	      4.48533108	     -4.05814933	    -22.70220390	     -9.21201904	      1.30285279	     10.89620911	     -3.29322271	     -7.05629078	      2.24388331	    -26.46342311	     18.08605194	     23.68459747	     -3.93842710	     11.09666738	      5.71499523	    -14.27592336
      3.47000000	    -12.27578014	     -7.03514398	      1.80438372	     -1.74663676	     -0.05838711	     -0.31760188	     42.00851968	      5.16439258	     -3.79427548	    -23.77486012	     -9.51278040	      0.47994261	      9.67176341	     -3.27602060	     -7.78063985	      1.41993637	    -27.42980063	     16.43430875	     24.61173324	     -0.91437800	     11.04999351	      6.30827671	    -14.13252740
      3.47500000	    -12.32038987	     -7.47973300	      1.61446089	     -1.73890399	     -0.05880071	     -0.31664589	     42.15756203	      5.76994793	     -3.79753006	    -24.86917559	     -9.42304492	      0.26922948	      8.94110623	     -3.07260990	     -8.53487015	      0.53910114	    -28.49749059	     14.74621331	     25.54832675	      1.88082306	     11.18931920	      6.91753621	    -14.12064509
      3.48000000	    -12.34106101	     -7.90262913	      1.46861971	     -1.73135479	     -0.05909763	     -0.31556810	     42.23477034	      6.37035267	     -3.74763778	    -25.84848360	     -9.41021971	     -0.26586248	      8.40488214	     -2.79825465	     -9.30585385	     -0.27615357	    -29.72273473	     13.14155846	     26.65765920	      3.96710469	     11.26594901	      7.46389278	    -14.09888372
      3.48500000	    -12.27876040	     -8.23177733	      1.30765250	     -1.72378480	     -0.05920492	     -0.31447964	     42.18312979	      6.89497110	     -3.64950738	    -26.81425927	     -8.99301639	     -0.39905050	      7.91172801	     -2.62053074	     -9.98256130	     -1.06970416	    -30.84029395	     11.05740021	     27.64342581	      6.87627517	     11.24296472	      7.91059791	    -14.07545871
      3.49000000	    -12.25495096	     -8.59756498	      1.08842653	     -1.71610720	     -0.05929338	     -0.31335940	     42.10685792	      7.47644379	     -3.58368251	    -27.67320200	     -8.49634180	     -0.44289838	      7.68287094	     -2.39344456	    -10.68622719	     -1.81528463	    -32.00104979	      8.90916525	     28.45531432	      9.40889946	     11.27677062	      8.41441233	    -13.98299851
      3.49500000	    -12.23486155	     -8.92099979	      0.92615578	     -1.70859672	     -0.05931644	     -0.31216390	     41.99104082	      8.00571427	     -3.49294540	    -28.44533406	     -7.97508121	     -0.58179380	      7.62262938	     -2.06759642	    -11.36937668	     -2.44455085	    -33.26159971	      6.69792640	     29.35071821	     11.65802982	     11.29512068	      8.82779431	    -13.96308579
      3.50000000	    -12.25714841	     -9.28018778	      0.72513221	     -1.70100162	     -0.05929574	     -0.31095824	     41.85286320	      8.57004510	     -3.47407791	    -29.10499097	     -7.40160740	     -0.60287400	      7.73329256	     -1.68150599	    -12.07285534	     -3.00041092	    -34.54048043	      4.36522854	     30.01669054	     13.66299062	     11.37809876	      9.29161414	    -13.90106247
      3.50500000	    -12.25580582	     -9.54511942	      0.55359671	     -1.69361025	     -0.05920082	     -0.30971912	     41.67150790	      9.02671012	     -3.48333362	    -29.73012496	     -6.73923864	     -0.53697469	      8.01350866	     -1.24647463	    -12.67132528	     -3.43148888	    -35.87972977	      1.98696977	     30.66447870	     15.33612631	     11.40373528	      9.62965852	    -13.84312670
      3.51000000	    -12.26658225	     -9.81588309	      0.34236016	     -1.68630363	     -0.05905803	     -0.30848691	     41.44778841	      9.50445328	     -3.44643372	    -30.25482547	     -6.04512829	     -0.33777942	      8.42947481	     -0.76173249	    -13.23662705	     -3.76460301	    -37.25958268	     -0.43001198	     30.98611121	     16.72361230	     11.42547547	      9.98443074	    -13.72750034
      3.51500000	    -12.31154828	    -10.07132326	      0.14009187	     -1.67906877	     -0.05889090	     -0.30723673	     41.22071888	      9.94976321	     -3.47632090	    -30.70202654	     -5.34870472	     -0.12662661	      8.91659799	     -0.17955668	    -13.77542642	     -4.00916177	    -38.71388349	     -2.74013205	     31.23470550	     17.48582131	     11.48617250	     10.30926255	    -13.62132908
      3.52000000	    -12.38136855	    -10.32418277	     -0.07741382	     -1.67182846	     -0.05866957	     -0.30598843	     40.96572050	     10.39083852	     -3.53862647	    -31.05704013	     -4.63951696	      0.11900793	      9.44737249	      0.45611833	    -14.27984006	     -4.17037206	    -40.18107083	     -4.99350081	     31.24979713	     17.85858040	     11.58694048	     10.62986893	    -13.47735182
      3.52500000	    -12.40727326	    -10.60269531	     -0.29886920	     -1.66475163	     -0.05834548	     -0.30476537	     40.61204285	     10.88308843	     -3.50427897	    -31.30550207	     -3.98917838	      0.26085915	      9.80633640	      1.11056024	    -14.78411966	     -4.28442972	    -41.74022928	     -7.02713365	     30.98583239	     17.59329525	     11.61089837	     10.98230719	    -13.31015861
